<?xml version="1.0" standalone="no"?>
<!DOCTYPE svg PUBLIC "-//W3C//DTD SVG 20010904//EN"
 "http://www.w3.org/TR/2001/REC-SVG-20010904/DTD/svg10.dtd">
<svg version="1.0" xmlns="http://www.w3.org/2000/svg"
 width="517.000000pt" height="502.000000pt" viewBox="0 0 517.000000 502.000000"
 preserveAspectRatio="xMidYMid meet">
<metadata>
Created by potrace 1.16, written by Peter Selinger 2001-2019
</metadata>
<g transform="translate(0.000000,502.000000) scale(0.100000,-0.100000)"
fill="#000000" stroke="none">
<path d="M1761 4826 c-86 -278 -62 -498 71 -642 l41 -44 -27 0 c-37 0 -96 26
-130 58 l-29 27 6 -110 c3 -60 13 -129 21 -152 21 -60 1 -57 -64 8 -28 28 -52
50 -54 48 -6 -7 -35 -185 -40 -244 -3 -33 -1 -91 4 -130 5 -38 7 -72 4 -74 -2
-3 -29 21 -60 53 -31 32 -57 56 -58 54 -11 -13 -26 -196 -26 -305 0 -73 -4
-133 -9 -133 -5 0 -28 7 -51 15 -174 61 -293 -58 -246 -246 37 -143 126 -272
232 -334 65 -38 70 -30 19 31 -103 127 -163 265 -149 347 14 89 93 126 146 70
31 -33 46 -68 60 -143 5 -30 18 -70 28 -87 24 -41 15 -41 -39 -2 -24 17 -45
28 -47 26 -11 -10 120 -189 176 -240 53 -49 60 -60 60 -94 0 -70 29 -174 67
-246 21 -39 43 -72 48 -74 6 -2 23 25 39 59 l28 63 17 -51 c22 -65 64 -137
113 -194 44 -50 167 -160 180 -160 4 0 8 11 8 24 0 34 11 86 19 86 3 0 24 -35
46 -78 38 -73 138 -192 162 -192 6 0 14 13 18 30 7 32 72 137 98 159 28 22 31
-9 13 -115 -19 -114 -20 -142 -4 -219 l11 -58 24 48 c14 27 83 107 161 189 75
78 148 163 162 189 14 26 28 47 31 47 9 0 19 -39 19 -77 0 -18 4 -33 9 -33 16
0 117 87 170 147 58 64 102 137 121 198 7 22 16 44 20 48 7 8 50 -81 50 -103
0 -23 25 -3 53 43 41 67 66 147 74 233 5 65 9 78 34 98 15 13 51 50 81 83 90
102 165 240 95 176 -22 -20 -60 -43 -72 -43 -4 0 3 13 14 29 12 16 28 61 36
100 19 90 37 127 75 146 44 23 69 18 106 -19 30 -30 34 -40 34 -87 -1 -90 -64
-214 -167 -329 -51 -57 -40 -64 33 -19 169 106 279 364 215 505 -36 78 -112
113 -210 96 -31 -6 -64 -13 -73 -17 -16 -7 -18 2 -18 96 0 90 -23 315 -33 325
-2 2 -19 -20 -38 -48 -44 -67 -63 -75 -53 -22 19 98 1 382 -26 399 -4 2 -24
-20 -44 -50 -20 -30 -41 -55 -46 -55 -6 0 -10 28 -10 63 -1 166 -69 327 -190
448 -63 64 -93 85 -181 127 -100 49 -165 72 -157 55 73 -147 90 -213 74 -279
-7 -27 -7 -27 -36 23 -31 55 -90 108 -155 141 -54 27 -219 77 -351 106 -278
63 -433 145 -487 259 -10 20 -20 37 -22 37 -2 0 -13 -29 -24 -64z m406 -1175
c104 -22 183 -54 254 -106 50 -36 65 -41 71 -27 6 16 101 74 157 97 50 21 199
55 237 55 23 0 16 -18 -16 -37 -16 -9 -30 -20 -30 -24 0 -3 27 -9 60 -12 102
-9 176 -44 251 -117 66 -65 94 -118 101 -195 3 -33 7 -33 -81 -9 -77 21 -235
29 -301 15 -29 -6 -107 -34 -173 -62 -208 -87 -249 -87 -452 0 -64 28 -143 56
-176 62 -72 14 -222 7 -300 -15 -89 -24 -84 -25 -81 13 5 64 51 148 112 204
65 59 143 94 231 104 32 3 59 10 59 14 0 5 -11 16 -25 25 -14 9 -25 20 -25 25
0 13 24 11 127 -10z m-49 -455 c10 -9 -2 -55 -56 -226 -37 -118 -71 -221 -75
-227 -10 -15 -51 -17 -77 -3 -17 9 -16 17 26 142 24 73 60 179 80 236 36 101
37 103 63 97 14 -3 32 -12 39 -19z m1095 1 c19 -13 24 6 -92 -357 l-36 -115
-43 -3 c-30 -2 -44 1 -48 12 -3 8 13 68 35 133 23 65 58 169 78 231 34 105 38
112 63 112 14 0 34 -6 43 -13z m-678 -196 c17 -10 50 -51 75 -92 25 -41 74
-104 110 -140 89 -90 145 -112 295 -114 l110 -2 3 -55 c7 -131 -75 -270 -215
-362 -51 -34 -182 -80 -270 -96 -111 -20 -309 -9 -405 23 -157 53 -253 117
-317 214 -41 62 -73 167 -69 228 l3 47 110 3 c193 4 270 50 390 230 90 136
119 154 180 116z"/>
<path d="M2795 2593 c-68 -12 -71 -14 -52 -28 18 -13 18 -15 -2 -53 -39 -76
-119 -133 -212 -151 l-44 -9 56 -1 c113 -2 193 48 242 150 18 37 37 68 44 68
6 1 14 5 17 10 7 11 -21 18 -49 14z"/>
<path d="M1960 1499 c-85 -34 -125 -106 -118 -212 7 -114 75 -177 191 -177 93
0 143 30 178 105 37 80 20 180 -39 238 -54 53 -145 73 -212 46z m161 -85 c60
-57 59 -155 -1 -216 -24 -24 -36 -28 -83 -28 -41 0 -61 5 -82 22 -54 42 -70
125 -37 187 40 75 143 92 203 35z"/>
<path d="M1364 1487 c-2 -7 -3 -91 -2 -187 l3 -175 33 -3 32 -3 0 135 c0 75 4
136 8 136 5 0 35 -36 66 -80 32 -44 62 -80 66 -80 4 0 34 36 66 80 31 44 61
80 66 80 4 0 8 -60 8 -134 l0 -134 30 -4 c17 -3 32 -2 35 0 3 3 5 90 5 194 l0
188 -43 0 c-43 0 -45 -1 -101 -80 -32 -44 -62 -80 -67 -80 -5 0 -17 12 -27 28
-9 15 -34 51 -55 80 -36 47 -42 52 -78 52 -23 0 -42 -5 -45 -13z"/>
<path d="M2300 1310 l0 -190 35 0 34 0 3 127 3 126 45 -55 c25 -31 70 -87 100
-127 39 -50 61 -71 78 -71 l22 0 0 191 0 190 -32 -3 -33 -3 -3 -112 c-1 -62
-6 -113 -10 -113 -4 1 -47 52 -95 115 -77 100 -92 115 -118 115 l-29 0 0 -190z"/>
<path d="M2694 1487 c-2 -7 -3 -91 -2 -187 l3 -175 33 -3 32 -3 0 75 c0 41 4
77 9 80 5 4 43 -30 84 -74 70 -76 76 -80 116 -80 l43 0 -86 94 c-47 51 -86 98
-86 104 0 6 36 49 81 96 l81 86 -44 0 c-43 0 -47 -3 -109 -74 -35 -41 -70 -75
-76 -75 -9 -1 -13 20 -13 74 l0 75 -30 0 c-17 0 -33 -6 -36 -13z"/>
<path d="M3060 1310 l0 -190 145 0 145 0 0 30 0 30 -111 0 -110 0 3 48 3 47
103 3 102 3 0 29 0 30 -106 0 -105 0 3 48 3 47 108 3 107 3 0 29 0 30 -145 0
-145 0 0 -190z"/>
<path d="M3417 1487 c4 -7 38 -61 76 -119 67 -104 67 -105 67 -176 l0 -72 30
0 30 0 0 75 0 74 75 110 c41 60 75 112 75 115 0 3 -17 6 -38 6 -37 0 -40 -3
-86 -75 -26 -41 -51 -75 -56 -75 -5 0 -28 33 -52 73 -43 70 -46 72 -87 75 -34
3 -41 0 -34 -11z"/>
<path d="M490 891 c-79 -25 -164 -89 -208 -158 -122 -193 -51 -448 154 -549
l59 -29 1335 0 1335 0 57 27 c74 34 152 112 186 186 24 50 27 69 27 157 0 87
-3 107 -27 157 -35 76 -95 138 -170 179 l-63 34 -1330 2 c-731 1 -1341 -2
-1355 -6z m720 -272 l0 -50 26 20 c37 29 89 27 119 -4 23 -22 25 -31 25 -120
0 -94 -1 -96 -22 -93 -21 3 -23 9 -28 90 -3 47 -7 89 -10 91 -7 7 -29 10 -58
8 -31 -1 -52 -54 -52 -131 0 -58 -1 -61 -22 -58 -23 3 -23 6 -25 151 l-2 147
25 0 c22 0 24 -4 24 -51z m-570 21 c0 -17 -7 -20 -45 -20 l-44 0 -3 -122 -3
-123 -25 0 -25 0 -3 123 -3 122 -44 0 c-38 0 -45 3 -45 20 0 19 7 20 120 20
113 0 120 -1 120 -20z m207 -65 c14 -16 23 -39 23 -61 l0 -34 -80 0 c-68 0
-80 -2 -80 -17 0 -25 30 -53 57 -53 12 0 32 9 43 20 20 20 60 28 60 11 0 -41
-47 -71 -110 -71 -33 0 -48 6 -71 29 -25 26 -29 37 -29 86 0 31 5 65 10 75 30
55 135 64 177 15z m250 0 c13 -14 23 -33 23 -41 0 -19 -46 -18 -54 1 -3 8 -17
20 -30 27 -20 9 -30 8 -51 -6 -21 -14 -25 -24 -25 -63 0 -53 20 -83 56 -83 23
0 54 23 54 41 0 5 11 9 25 9 31 0 33 -27 5 -58 -41 -43 -128 -42 -167 3 -18
21 -23 38 -23 83 1 86 41 126 120 118 32 -3 50 -11 67 -31z m518 23 c33 -15
47 -64 43 -153 -3 -64 -5 -70 -25 -73 -22 -3 -23 -1 -23 75 0 90 -12 116 -55
116 -47 0 -65 -33 -65 -119 0 -72 -1 -74 -25 -74 l-25 0 0 115 0 115 25 0 c16
0 25 -6 25 -16 0 -13 5 -12 26 5 30 24 61 26 99 9z m275 -13 c28 -25 43 -79
35 -125 -15 -86 -120 -121 -186 -62 -59 53 -45 173 24 202 32 14 105 5 127
-15z m349 11 c35 -19 51 -55 51 -117 0 -43 -5 -55 -30 -81 -29 -28 -35 -30
-86 -26 -71 6 -95 29 -102 97 -6 61 11 107 47 126 34 18 85 19 120 1z m235 -7
c21 -17 26 -18 26 -5 0 10 9 16 25 16 l25 0 0 -105 c0 -160 -21 -195 -119
-195 -61 0 -81 7 -81 29 0 15 8 17 59 13 52 -4 60 -2 75 19 9 13 16 32 16 42
0 17 -2 17 -26 -2 -31 -25 -64 -27 -103 -6 -32 16 -41 39 -41 108 0 40 5 53
29 78 35 35 77 38 115 8z m190 -74 c15 -47 29 -85 31 -85 2 0 16 38 31 85 26
79 30 85 55 85 l27 0 -39 -105 c-21 -58 -46 -119 -54 -135 -18 -34 -59 -65
-75 -55 -16 10 -12 33 9 40 20 6 37 35 22 35 -5 0 -16 19 -24 43 -8 23 -26 72
-40 110 l-26 67 27 0 c26 0 30 -6 56 -85z"/>
<path d="M1776 549 c-28 -22 -34 -58 -16 -103 17 -46 87 -47 108 0 19 39 14
73 -13 99 -29 30 -45 31 -79 4z"/>
<path d="M2160 563 c-27 -9 -40 -36 -40 -79 0 -33 5 -46 22 -58 52 -36 98 -7
98 62 0 60 -34 92 -80 75z"/>
<path d="M3770 540 l0 -180 45 0 45 0 0 84 c0 76 2 86 22 100 38 27 52 0 57
-99 l3 -85 45 0 45 0 -4 109 c-3 89 -7 113 -22 130 -26 29 -78 37 -115 18
l-31 -15 0 59 0 59 -45 0 -45 0 0 -180z"/>
<path d="M3575 702 c-78 -8 -120 -97 -75 -155 12 -15 44 -39 70 -52 55 -28 62
-35 50 -54 -8 -14 -86 -11 -122 4 -15 6 -18 1 -18 -34 0 -39 1 -41 42 -52 80
-21 163 4 186 57 29 62 7 107 -73 148 -71 37 -79 61 -20 60 22 0 49 -2 59 -5
14 -3 23 4 33 29 12 31 12 33 -9 41 -32 11 -87 17 -123 13z"/>
<path d="M4149 652 c-15 -2 -39 -17 -55 -33 -25 -26 -29 -38 -29 -88 0 -66 33
-141 76 -174 24 -17 31 -18 64 -7 30 10 46 10 78 0 35 -10 43 -9 66 7 14 11
35 35 45 54 l19 35 -26 27 c-33 32 -36 83 -6 121 11 14 18 30 14 36 -11 17
-69 27 -112 18 -23 -5 -56 -6 -75 -1 -18 5 -45 7 -59 5z"/>
<path d="M4577 610 c-21 -17 -26 -18 -31 -5 -3 9 -19 15 -41 15 l-35 0 0 -190
0 -190 45 0 45 0 0 71 0 70 22 -15 c33 -23 64 -19 100 13 27 24 32 36 36 88 5
78 -11 129 -48 148 -39 20 -62 19 -93 -5z"/>
</g>
</svg>
